<?xml version="1.0" encoding="utf-8"?><!-- Uploaded to: SVG Repo, www.svgrepo.com, Generator: SVG Repo Mixer Tools -->
<svg viewBox="0 -1 24 14" role="img" xmlns="http://www.w3.org/2000/svg"><path d="M 16.214 0.262 L 16.139 0.653 C 16.023 1.394 16.065 1.606 16.383 1.881 L 16.69 2.135 L 16.372 3.553 C 16.182 4.399 15.949 5.108 15.801 5.341 C 15.674 5.542 15.526 5.838 15.494 5.997 C 15.441 6.187 15.261 6.378 14.986 6.547 C 14.743 6.685 14.266 7.055 13.928 7.352 C 13.658 7.595 13.472 7.744 13.371 7.808 L 13.041 8.069 C 12.935 8.239 12.875 8.376 12.852 8.48 C 12.829 8.587 12.842 8.658 12.876 8.71 C 12.909 8.76 12.966 8.795 13.044 8.817 C 13.136 8.839 13.231 8.847 13.326 8.84 C 13.54 8.826 13.752 8.788 13.958 8.728 C 14.028 8.709 14.083 8.691 14.131 8.675 C 14.205 8.584 14.376 8.412 14.679 8.113 C 15.483 7.32 15.79 6.886 15.473 7.003 C 15.356 7.045 15.409 6.939 15.61 6.727 C 16.034 6.314 16.277 5.69 16.785 3.733 C 17.187 2.188 17.187 2.166 17.483 2.166 C 17.622 2.166 18.015 2.19 18.015 2.19 L 18.015 0.262 L 17.113 0.262 L 16.214 0.262 Z M 20.053 3.427 C 19.989 3.427 19.883 3.523 19.82 3.629 C 19.704 3.819 19.841 3.935 21.587 5.025 C 22.624 5.682 23.46 6.242 23.439 6.285 C 23.418 6.316 22.571 6.867 21.556 7.502 C 19.714 8.644 19.704 8.655 19.873 8.888 C 20.085 9.163 19.873 9.258 22.264 7.766 L 24 6.655 L 24 5.819 L 22.063 4.623 C 21.016 3.967 20.106 3.438 20.053 3.427 Z M 3.968 3.544 C 3.915 3.544 3.005 4.084 1.958 4.729 L 0 5.925 L 0 6.761 L 1.947 7.978 C 3.027 8.644 3.937 9.195 3.979 9.195 C 4.021 9.195 4.106 9.099 4.191 8.983 C 4.318 8.782 4.211 8.697 2.423 7.565 C 0.72 6.496 0.54 6.348 0.71 6.232 C 0.816 6.158 1.62 5.66 2.488 5.121 C 4.467 3.904 4.361 3.988 4.202 3.734 C 4.139 3.629 4.032 3.534 3.969 3.544 L 3.968 3.544 Z M 12.652 3.567 C 12.36 3.565 11.732 4.01 9.852 5.545 C 9.771 5.738 9.764 5.871 9.801 5.957 C 9.825 6.016 9.869 6.057 9.93 6.087 C 9.99 6.117 10.068 6.135 10.154 6.142 C 10.325 6.157 10.527 6.13 10.69 6.098 L 10.8 6.073 C 10.838 6.023 10.887 5.982 10.944 5.955 C 11.06 5.891 11.547 5.447 12.034 4.971 C 12.891 4.103 13.092 3.711 12.743 3.584 C 12.714 3.573 12.684 3.567 12.653 3.567 L 12.652 3.567 Z M 14.848 4.17 C 14.591 4.177 14.128 4.475 13.335 5.108 C 12.937 5.431 12.685 5.605 12.55 5.641 L 12.026 6.055 C 11.829 6.415 11.8 6.638 11.852 6.761 C 11.878 6.823 11.928 6.871 11.99 6.895 C 12.066 6.925 12.148 6.941 12.23 6.94 C 12.426 6.938 12.621 6.91 12.81 6.855 C 12.908 6.829 13.005 6.798 13.101 6.763 L 13.13 6.751 L 13.183 6.723 C 13.283 6.594 13.513 6.351 13.801 6.071 C 14.711 5.193 15.176 4.569 15.081 4.336 C 15.038 4.223 14.964 4.166 14.848 4.17 Z M 12.424 5.25 C 12.35 5.258 12.184 5.386 11.885 5.648 C 11.453 6.03 10.982 6.25 10.819 6.152 C 10.781 6.161 10.743 6.169 10.705 6.176 C 10.539 6.209 10.332 6.236 10.147 6.221 C 10.06 6.216 9.974 6.195 9.895 6.158 C 9.82 6.124 9.76 6.064 9.727 5.988 C 9.69 5.898 9.69 5.786 9.732 5.643 L 9.082 6.177 L 7.611 7.394 L 7.611 9.367 L 12.431 5.57 C 12.43 5.529 12.435 5.487 12.447 5.447 C 12.484 5.313 12.482 5.245 12.424 5.251 L 12.424 5.25 Z M 14.498 5.889 C 14.425 5.889 14.303 5.992 14.108 6.199 C 13.843 6.482 13.426 6.756 13.205 6.812 L 13.171 6.83 C 13.135 6.845 13.098 6.859 13.061 6.872 C 13.001 6.892 12.923 6.916 12.833 6.94 C 12.653 6.989 12.429 7.034 12.229 7.029 C 12.135 7.029 12.041 7.011 11.954 6.975 C 11.872 6.941 11.806 6.877 11.77 6.795 C 11.712 6.656 11.735 6.461 11.862 6.184 L 7.61 9.533 L 7.61 10.738 L 9.478 10.738 L 13.44 7.626 C 13.543 7.512 13.698 7.356 13.907 7.161 C 14.467 6.642 14.594 6.463 14.594 6.198 C 14.594 5.992 14.571 5.888 14.498 5.888 L 14.498 5.889 Z M 15.441 7.839 L 15.102 8.177 C 14.912 8.357 14.573 8.579 14.341 8.674 L 14.295 8.694 L 14.292 8.699 L 14.282 8.709 C 14.273 8.716 14.269 8.717 14.262 8.72 C 14.169 8.755 14.075 8.786 13.98 8.813 C 13.768 8.875 13.55 8.914 13.33 8.928 C 13.226 8.935 13.121 8.926 13.02 8.901 C 12.932 8.882 12.854 8.831 12.802 8.757 C 12.754 8.683 12.74 8.584 12.767 8.462 C 12.788 8.375 12.82 8.292 12.862 8.212 L 9.665 10.738 L 13.917 10.738 L 14.425 10.156 C 15.123 9.342 15.441 8.76 15.441 8.262 L 15.441 7.839 Z"/></svg>